<svg xmlns="http://www.w3.org/2000/svg" width="250" height="80" viewBox="0 0 250 80">
<g>
<path d="M 82.00 45.24 C82.00,45.66 79.75,46.00 77.00,46.00 C71.64,46.00 70.94,45.27 73.82,42.66 C74.83,41.75 77.84,35.38 80.52,28.50 C85.07,16.83 85.57,16.00 88.06,16.00 C90.58,16.00 91.03,16.78 95.62,29.07 C98.32,36.29 101.26,42.56 102.19,43.08 C103.60,43.85 105.37,41.88 112.80,31.25 L 121.71 18.50 L 118.72 18.18 C113.66,17.63 111.05,18.83 109.29,22.53 C106.99,27.33 106.00,26.87 106.00,21.00 L 106.00 16.00 L 118.50 16.00 C125.38,16.00 131.00,16.36 131.00,16.81 C131.00,17.25 127.15,23.21 122.45,30.06 L 113.91 42.50 L 118.56 42.81 C123.60,43.14 126.48,41.46 128.09,37.25 C128.56,36.01 129.41,35.00 129.98,35.00 C131.14,35.00 131.24,36.89 130.36,42.25 L 129.74 46.00 L 109.37 46.00 C98.17,46.00 89.00,45.71 89.00,45.36 C89.00,45.01 89.73,44.19 90.62,43.54 C91.82,42.66 92.06,41.54 91.54,39.18 C90.86,36.09 90.69,36.00 85.52,36.00 C80.50,36.00 80.14,36.17 79.14,39.02 C78.24,41.61 78.37,42.21 80.05,43.26 C81.12,43.93 82.00,44.82 82.00,45.24 ZM 158.75 44.46 C156.22,45.52 151.75,46.00 144.53,46.00 C134.70,46.00 131.28,45.00 136.00,43.50 C137.85,42.91 138.00,41.99 138.00,30.84 C138.00,19.65 137.86,18.78 136.00,18.29 C131.04,16.99 134.91,16.00 144.93,16.00 C157.22,16.00 160.52,16.85 162.15,20.44 C163.69,23.80 161.20,27.57 156.78,28.57 L 153.50 29.32 L 157.00 30.25 C161.82,31.52 164.00,33.75 163.98,37.40 C163.96,41.51 163.13,42.63 158.75,44.46 ZM 233.55 44.55 C230.77,47.32 229.56,47.51 226.00,45.71 C224.03,44.72 223.25,43.21 222.34,38.59 C221.09,32.27 220.01,31.04 215.75,31.02 C213.12,31.00 213.00,31.21 213.00,35.93 C213.00,40.62 214.70,44.00 217.07,44.00 C217.58,44.00 218.00,44.45 218.00,45.00 C218.00,45.58 214.67,46.00 210.00,46.00 C201.79,46.00 200.51,45.41 204.00,43.23 C205.81,42.10 206.00,40.90 206.00,30.40 C206.00,19.65 205.85,18.77 204.00,18.29 C198.95,16.97 202.99,16.00 213.55,16.00 C226.32,16.00 230.53,17.27 231.57,21.43 C232.44,24.87 230.54,27.67 226.41,29.03 C222.86,30.20 222.84,30.24 225.13,31.38 C227.93,32.77 229.97,36.49 229.99,40.25 C230.00,43.49 232.54,44.03 233.50,41.00 C233.85,39.90 234.55,39.00 235.07,39.00 C236.84,39.00 235.99,42.10 233.55,44.55 ZM 191.15 44.92 C188.61,46.28 178.08,46.28 175.75,44.92 C172.27,42.89 171.00,38.50 171.00,28.46 C171.00,19.65 170.83,18.77 169.00,18.29 C164.64,17.15 167.39,16.00 174.50,16.00 C178.83,16.00 182.00,16.42 182.00,17.00 C182.00,17.55 181.32,18.00 180.50,18.00 C178.10,18.00 178.32,39.10 180.75,41.23 C184.45,44.47 189.85,44.18 192.23,40.60 C192.64,40.00 192.98,34.66 192.98,28.75 C193.00,19.85 192.74,18.00 191.50,18.00 C190.68,18.00 190.00,17.55 190.00,17.00 C190.00,16.45 192.25,16.00 195.00,16.00 C200.02,16.00 201.74,17.31 198.00,18.29 C196.18,18.76 196.00,19.65 196.00,27.94 C196.00,37.85 194.49,43.13 191.15,44.92 ZM 146.67 43.33 C148.01,44.68 152.06,43.94 154.00,42.00 C156.01,39.99 156.63,35.54 155.21,33.31 C154.38,32.00 149.68,30.00 147.43,30.00 C146.34,30.00 146.00,31.50 146.00,36.33 C146.00,39.82 146.30,42.97 146.67,43.33 ZM 213.23 23.98 L 212.75 29.00 L 216.37 29.00 C221.18,29.00 224.44,25.89 223.52,22.16 C222.62,18.52 221.57,17.67 218.03,17.67 C214.08,17.67 213.80,18.04 213.23,23.98 ZM 146.00 23.07 L 146.00 28.00 L 149.46 28.00 C151.96,28.00 153.24,27.41 154.05,25.91 C156.40,21.52 152.45,16.09 147.96,17.51 C146.36,18.02 146.00,19.04 146.00,23.07 ZM 81.50 32.25 C80.89,33.75 81.38,34.00 84.89,34.00 C89.56,34.00 89.63,33.74 87.09,26.52 L 85.34 21.55 L 83.78 26.02 C82.92,28.49 81.89,31.29 81.50,32.25 Z" fill="rgb(5,5,5)"/>
<path d="M 149.24 55.50 C149.76,58.22 148.57,58.94 147.63,56.48 C147.31,55.64 147.93,54.07 149.02,52.98 C150.11,51.89 151.00,50.55 151.00,50.00 C151.00,49.45 151.45,49.00 152.00,49.00 C152.55,49.00 153.00,51.03 153.00,53.50 C153.00,55.97 152.55,58.00 152.00,58.00 C151.45,58.00 151.00,56.88 151.00,55.50 C151.00,54.12 150.50,53.00 149.88,53.00 C149.23,53.00 148.97,54.04 149.24,55.50 ZM 77.24 55.49 C77.64,57.58 77.34,58.00 75.42,58.00 C72.94,58.00 71.38,56.50 72.90,55.56 C73.41,55.25 74.06,55.55 74.34,56.24 C74.61,56.93 74.88,56.46 74.92,55.19 C74.97,53.62 74.60,53.11 73.75,53.59 C72.79,54.13 72.77,54.00 73.66,53.03 C75.19,51.37 76.65,52.37 77.24,55.49 ZM 93.14 55.25 C93.65,57.65 93.41,58.00 91.33,58.00 C88.63,58.00 87.39,55.86 88.58,53.25 C89.24,51.81 89.45,51.98 89.76,54.25 C90.21,57.57 91.72,57.88 92.21,54.75 C92.53,52.70 92.61,52.74 93.14,55.25 ZM 156.96 53.00 C156.50,53.00 155.96,54.24 155.76,55.75 C155.44,58.10 155.26,58.23 154.55,56.67 C153.50,54.35 155.97,51.67 158.32,52.57 C160.24,53.30 160.57,56.53 158.85,57.60 C158.17,58.02 157.96,57.87 158.35,57.24 C159.13,55.99 158.15,53.00 156.96,53.00 ZM 164.00 53.00 C163.52,53.00 162.96,54.24 162.76,55.75 C162.44,58.10 162.26,58.23 161.55,56.67 C160.99,55.43 161.25,54.32 162.36,53.21 C163.88,51.69 164.12,51.69 165.64,53.21 C166.75,54.32 167.01,55.43 166.45,56.67 C165.74,58.23 165.56,58.10 165.24,55.75 C165.04,54.24 164.48,53.00 164.00,53.00 ZM 108.00 54.94 C108.00,56.62 107.55,58.00 107.00,58.00 C106.45,58.00 106.00,56.90 106.00,55.56 C106.00,54.22 106.45,52.84 107.00,52.50 C107.58,52.14 108.00,53.16 108.00,54.94 ZM 112.00 54.94 C112.00,56.62 111.55,58.00 111.00,58.00 C110.45,58.00 110.00,56.90 110.00,55.56 C110.00,54.22 110.45,52.84 111.00,52.50 C111.58,52.14 112.00,53.16 112.00,54.94 ZM 203.00 54.94 C203.00,56.62 202.55,58.00 202.00,58.00 C201.45,58.00 201.00,56.90 201.00,55.56 C201.00,54.22 201.45,52.84 202.00,52.50 C202.58,52.14 203.00,53.16 203.00,54.94 ZM 227.34 55.21 C228.11,58.15 227.42,58.66 226.08,56.15 C224.77,53.70 224.73,53.00 225.88,53.00 C226.37,53.00 227.03,53.99 227.34,55.21 Z" fill="rgb(132,98,102)"/>
<path d="M 64.14 58.09 C61.95,59.86 59.87,60.00 34.87,60.00 L 7.96 60.00 L 8.23 38.76 L 8.50 17.53 L 11.50 16.09 C13.79,14.99 20.75,14.54 40.84,14.19 L 67.18 13.73 L 66.84 34.95 C66.51,55.86 66.46,56.21 64.14,58.09 ZM 14.55 53.08 C13.97,53.64 16.39,54.00 20.75,54.00 C26.20,54.00 28.11,53.63 28.78,52.43 C30.04,50.17 36.11,49.05 47.25,49.02 C55.24,49.00 57.00,48.73 57.00,47.50 C57.00,46.28 55.33,46.00 48.00,46.00 C43.04,46.00 39.00,45.58 39.00,45.06 C39.00,44.54 41.81,41.99 45.25,39.40 C56.13,31.19 57.00,30.14 57.00,25.31 C57.00,22.94 56.66,21.01 56.25,21.02 C55.59,21.04 17.03,50.69 14.55,53.08 Z" fill="rgb(214,13,23)"/>
<path d="M 0.00 40.00 L 0.00 0.00 L 125.00 0.00 L 250.00 0.00 L 250.00 40.00 L 250.00 80.00 L 125.00 80.00 L 0.00 80.00 L 0.00 40.00 ZM 64.14 58.09 C66.46,56.21 66.51,55.86 66.84,34.95 L 67.18 13.73 L 40.84 14.19 C20.75,14.54 13.79,14.99 11.50,16.09 L 8.50 17.53 L 8.23 38.76 L 7.96 60.00 L 34.87 60.00 C59.87,60.00 61.95,59.86 64.14,58.09 ZM 77.24 55.49 C76.65,52.37 75.19,51.37 73.66,53.03 C72.77,54.00 72.79,54.13 73.75,53.59 C74.60,53.11 74.97,53.62 74.92,55.19 C74.88,56.46 74.61,56.93 74.34,56.24 C74.06,55.55 73.41,55.25 72.90,55.56 C71.38,56.50 72.94,58.00 75.42,58.00 C77.34,58.00 77.64,57.58 77.24,55.49 ZM 93.14 55.25 C92.61,52.74 92.53,52.70 92.21,54.75 C91.72,57.88 90.21,57.57 89.76,54.25 C89.45,51.98 89.24,51.81 88.58,53.25 C87.39,55.86 88.63,58.00 91.33,58.00 C93.41,58.00 93.65,57.65 93.14,55.25 ZM 108.00 54.94 C108.00,53.16 107.58,52.14 107.00,52.50 C106.45,52.84 106.00,54.22 106.00,55.56 C106.00,56.90 106.45,58.00 107.00,58.00 C107.55,58.00 108.00,56.62 108.00,54.94 ZM 112.00 54.94 C112.00,53.16 111.58,52.14 111.00,52.50 C110.45,52.84 110.00,54.22 110.00,55.56 C110.00,56.90 110.45,58.00 111.00,58.00 C111.55,58.00 112.00,56.62 112.00,54.94 ZM 149.24 55.50 C148.97,54.04 149.23,53.00 149.88,53.00 C150.50,53.00 151.00,54.12 151.00,55.50 C151.00,56.88 151.45,58.00 152.00,58.00 C152.55,58.00 153.00,55.97 153.00,53.50 C153.00,51.03 152.55,49.00 152.00,49.00 C151.45,49.00 151.00,49.45 151.00,50.00 C151.00,50.55 150.11,51.89 149.02,52.98 C147.93,54.07 147.31,55.64 147.63,56.48 C148.57,58.94 149.76,58.22 149.24,55.50 ZM 156.96 53.00 C158.15,53.00 159.13,55.99 158.35,57.24 C157.96,57.87 158.17,58.02 158.85,57.60 C160.57,56.53 160.24,53.30 158.32,52.57 C155.97,51.67 153.50,54.35 154.55,56.67 C155.26,58.23 155.44,58.10 155.76,55.75 C155.96,54.24 156.50,53.00 156.96,53.00 ZM 164.00 53.00 C164.48,53.00 165.04,54.24 165.24,55.75 C165.56,58.10 165.74,58.23 166.45,56.67 C167.01,55.43 166.75,54.32 165.64,53.21 C164.12,51.69 163.88,51.69 162.36,53.21 C161.25,54.32 160.99,55.43 161.55,56.67 C162.26,58.23 162.44,58.10 162.76,55.75 C162.96,54.24 163.52,53.00 164.00,53.00 ZM 203.00 54.94 C203.00,53.16 202.58,52.14 202.00,52.50 C201.45,52.84 201.00,54.22 201.00,55.56 C201.00,56.90 201.45,58.00 202.00,58.00 C202.55,58.00 203.00,56.62 203.00,54.94 ZM 227.34 55.21 C227.03,53.99 226.37,53.00 225.88,53.00 C224.73,53.00 224.77,53.70 226.08,56.15 C227.42,58.66 228.11,58.15 227.34,55.21 ZM 233.55 44.55 C235.99,42.10 236.84,39.00 235.07,39.00 C234.55,39.00 233.85,39.90 233.50,41.00 C232.54,44.03 230.00,43.49 229.99,40.25 C229.97,36.49 227.93,32.77 225.13,31.38 C222.84,30.24 222.86,30.20 226.41,29.03 C230.54,27.67 232.44,24.87 231.57,21.43 C230.53,17.27 226.32,16.00 213.55,16.00 C202.99,16.00 198.95,16.97 204.00,18.29 C205.85,18.77 206.00,19.65 206.00,30.40 C206.00,40.90 205.81,42.10 204.00,43.23 C200.51,45.41 201.79,46.00 210.00,46.00 C214.67,46.00 218.00,45.58 218.00,45.00 C218.00,44.45 217.58,44.00 217.07,44.00 C214.70,44.00 213.00,40.62 213.00,35.93 C213.00,31.21 213.12,31.00 215.75,31.02 C220.01,31.04 221.09,32.27 222.34,38.59 C223.25,43.21 224.03,44.72 226.00,45.71 C229.56,47.51 230.77,47.32 233.55,44.55 ZM 82.00 45.24 C82.00,44.82 81.12,43.93 80.05,43.26 C78.37,42.21 78.24,41.61 79.14,39.02 C80.14,36.17 80.50,36.00 85.52,36.00 C90.69,36.00 90.86,36.09 91.54,39.18 C92.06,41.54 91.82,42.66 90.62,43.54 C89.73,44.19 89.00,45.01 89.00,45.36 C89.00,45.71 98.17,46.00 109.37,46.00 L 129.74 46.00 L 130.36 42.25 C131.24,36.89 131.14,35.00 129.98,35.00 C129.41,35.00 128.56,36.01 128.09,37.25 C126.48,41.46 123.60,43.14 118.56,42.81 L 113.91 42.50 L 122.45 30.06 C127.15,23.21 131.00,17.25 131.00,16.81 C131.00,16.36 125.38,16.00 118.50,16.00 L 106.00 16.00 L 106.00 21.00 C106.00,26.87 106.99,27.33 109.29,22.53 C111.05,18.83 113.66,17.63 118.72,18.18 L 121.71 18.50 L 112.80 31.25 C105.37,41.88 103.60,43.85 102.19,43.08 C101.26,42.56 98.32,36.29 95.62,29.07 C91.03,16.78 90.58,16.00 88.06,16.00 C85.57,16.00 85.07,16.83 80.52,28.50 C77.84,35.38 74.83,41.75 73.82,42.66 C70.94,45.27 71.64,46.00 77.00,46.00 C79.75,46.00 82.00,45.66 82.00,45.24 ZM 158.75 44.46 C163.13,42.63 163.96,41.51 163.98,37.40 C164.00,33.75 161.82,31.52 157.00,30.25 L 153.50 29.32 L 156.78 28.57 C161.20,27.57 163.69,23.80 162.15,20.44 C160.52,16.85 157.22,16.00 144.93,16.00 C134.91,16.00 131.04,16.99 136.00,18.29 C137.86,18.78 138.00,19.65 138.00,30.84 C138.00,41.99 137.85,42.91 136.00,43.50 C131.28,45.00 134.70,46.00 144.53,46.00 C151.75,46.00 156.22,45.52 158.75,44.46 ZM 191.15 44.92 C194.49,43.13 196.00,37.85 196.00,27.94 C196.00,19.65 196.18,18.76 198.00,18.29 C201.74,17.31 200.02,16.00 195.00,16.00 C192.25,16.00 190.00,16.45 190.00,17.00 C190.00,17.55 190.68,18.00 191.50,18.00 C192.74,18.00 193.00,19.85 192.98,28.75 C192.98,34.66 192.64,40.00 192.23,40.60 C189.85,44.18 184.45,44.47 180.75,41.23 C178.32,39.10 178.10,18.00 180.50,18.00 C181.32,18.00 182.00,17.55 182.00,17.00 C182.00,16.42 178.83,16.00 174.50,16.00 C167.39,16.00 164.64,17.15 169.00,18.29 C170.83,18.77 171.00,19.65 171.00,28.46 C171.00,38.50 172.27,42.89 175.75,44.92 C178.08,46.28 188.61,46.28 191.15,44.92 ZM 14.55 53.08 C17.03,50.69 55.59,21.04 56.25,21.02 C56.66,21.01 57.00,22.94 57.00,25.31 C57.00,30.14 56.13,31.19 45.25,39.40 C41.81,41.99 39.00,44.54 39.00,45.06 C39.00,45.58 43.04,46.00 48.00,46.00 C55.33,46.00 57.00,46.28 57.00,47.50 C57.00,48.73 55.24,49.00 47.25,49.02 C36.11,49.05 30.04,50.17 28.78,52.43 C28.11,53.63 26.20,54.00 20.75,54.00 C16.39,54.00 13.97,53.64 14.55,53.08 ZM 213.23 23.98 C213.80,18.04 214.08,17.67 218.03,17.67 C221.57,17.67 222.62,18.52 223.52,22.16 C224.44,25.89 221.18,29.00 216.37,29.00 L 212.75 29.00 L 213.23 23.98 ZM 81.50 32.25 C81.89,31.29 82.92,28.49 83.78,26.02 L 85.34 21.55 L 87.09 26.52 C89.63,33.74 89.56,34.00 84.89,34.00 C81.38,34.00 80.89,33.75 81.50,32.25 ZM 146.67 43.33 C146.30,42.97 146.00,39.82 146.00,36.33 C146.00,31.50 146.34,30.00 147.43,30.00 C149.68,30.00 154.38,32.00 155.21,33.31 C156.63,35.54 156.01,39.99 154.00,42.00 C152.06,43.94 148.01,44.68 146.67,43.33 ZM 146.00 23.07 C146.00,19.04 146.36,18.02 147.96,17.51 C152.45,16.09 156.40,21.52 154.05,25.91 C153.24,27.41 151.96,28.00 149.46,28.00 L 146.00 28.00 L 146.00 23.07 Z" fill="rgb(253,252,251)"/>
</g>
</svg>